HIERARCHY
ROOT root
{
	OFFSET 0.000000 0.000000 0.000000
	CHANNELS 6 Xposition Yposition Zposition Zrotation Yrotation Xrotation
	JOINT lhip
	{
		OFFSET 0.058581 -0.082280 -0.017664
		CHANNELS 3 Zrotation Yrotation Xrotation
		JOINT lknee
		{
			OFFSET 0.043451 -0.386469 0.008037
			CHANNELS 3 Zrotation Yrotation Xrotation
			JOINT lankle
			{
				OFFSET -0.014790 -0.426874 -0.037428
				CHANNELS 3 Zrotation Yrotation Xrotation
				JOINT ltoe
				{
					OFFSET 0.041054 -0.060286 0.122042
					CHANNELS 3 Zrotation Yrotation Xrotation
					End Site
					{
						OFFSET 0.000000 0.000000 0.000000
					}
				}
			}
		}
	}
	JOINT rhip
	{
		OFFSET -0.060310 -0.090513 -0.013543
		CHANNELS 3 Zrotation Yrotation Xrotation
		JOINT rknee
		{
			OFFSET -0.043257 -0.383688 -0.004843
			CHANNELS 3 Zrotation Yrotation Xrotation
			JOINT rankle
			{
				OFFSET 0.019056 -0.420046 -0.034562
				CHANNELS 3 Zrotation Yrotation Xrotation
				JOINT rtoe
				{
					OFFSET -0.034840 -0.062106 0.130323
					CHANNELS 3 Zrotation Yrotation Xrotation
					End Site
					{
						OFFSET 0.000000 0.000000 0.000000
					}
				}
			}
		}
	}
	JOINT lowerback
	{
		OFFSET 0.004439 0.124404 -0.038385
		CHANNELS 3 Zrotation Yrotation Xrotation
		JOINT upperback
		{
			OFFSET 0.004488 0.137956 0.026820
			CHANNELS 3 Zrotation Yrotation Xrotation
			JOINT chest
			{
				OFFSET -0.002265 0.056032 0.002855
				CHANNELS 3 Zrotation Yrotation Xrotation
				JOINT lowerneck
				{
					OFFSET -0.013390 0.211636 -0.033468
					CHANNELS 3 Zrotation Yrotation Xrotation
					JOINT upperneck
					{
						OFFSET 0.010113 0.088937 0.050410
						CHANNELS 3 Zrotation Yrotation Xrotation
						End Site
						{
							OFFSET 0.000000 0.000000 0.000000
						}
					}
				}
				JOINT lclavicle
				{
					OFFSET 0.071702 0.114000 -0.018898
					CHANNELS 3 Zrotation Yrotation Xrotation
					JOINT lshoulder
					{
						OFFSET 0.122921 0.045205 -0.019046
						CHANNELS 3 Zrotation Yrotation Xrotation
						JOINT lelbow
						{
							OFFSET 0.255332 -0.015649 -0.022946
							CHANNELS 3 Zrotation Yrotation Xrotation
							JOINT lwrist
							{
								OFFSET 0.265709 0.012698 -0.007375
								CHANNELS 3 Zrotation Yrotation Xrotation
								End Site
								{
									OFFSET 0.000000 0.000000 0.000000
								}
							}
						}
					}
				}
				JOINT rclavicle
				{
					OFFSET -0.082954 0.112472 -0.023707
					CHANNELS 3 Zrotation Yrotation Xrotation
					JOINT rshoulder
					{
						OFFSET -0.113228 0.046853 -0.008472
						CHANNELS 3 Zrotation Yrotation Xrotation
						JOINT relbow
						{
							OFFSET -0.260127 -0.014369 -0.031269
							CHANNELS 3 Zrotation Yrotation Xrotation
							JOINT rwrist
							{
								OFFSET -0.269108 0.006794 -0.006027
								CHANNELS 3 Zrotation Yrotation Xrotation
								End Site
								{
									OFFSET 0.000000 0.000000 0.000000
								}
							}
						}
					}
				}
			}
		}
	}
}
MOTION
Frames: 11
Frame Time: 0.033333
0.349245 0.193227 1.004798 88.135442 -0.775825 92.828191 5.556124 3.137924 -5.900763 -3.167402 7.572897 5.330540 -2.176910 -2.530473 -2.766169 0.000000 -0.000000 0.000000 -8.395167 -5.242921 -10.983729 -2.776626 -9.002793 13.992456 8.610914 4.225161 -5.433269 0.000000 -0.000000 0.000000 -2.707050 4.819272 19.460160 -0.868322 -3.431486 22.542988 3.201795 1.293114 -5.787468 -3.220978 -0.090832 -3.596424 10.832011 1.437010 -5.602780 -3.289181 -37.263438 -1.521343 -88.853641 -25.669178 41.543753 -164.213893 -77.139525 -163.810572 26.687614 -15.068338 -46.020744 -12.754367 41.795864 -6.192059 81.258446 28.919651 38.456145 -139.668996 72.640545 -108.982777 22.200741 29.273924 -50.344472 
0.348371 0.192866 1.003207 87.960942 -0.771880 92.704287 5.579174 3.184600 -6.135449 -3.133945 7.733218 6.010726 -1.721645 -2.500109 -3.508473 0.000000 -0.000000 0.000000 -8.293048 -5.163608 -11.208378 -2.879506 -8.800741 14.491643 8.029980 4.153025 -6.131704 0.000000 -0.000000 0.000000 -2.468171 4.796704 19.700197 -1.068883 -3.243271 22.437924 3.054939 1.602856 -5.881774 -3.434384 -0.547121 -3.505680 11.207626 1.420793 -5.832857 -3.370448 -37.966571 -1.334972 -88.788592 -25.327699 41.053050 -164.238412 -76.536038 -163.625013 25.056998 -14.722160 -46.100160 -12.777194 42.869239 -5.732796 81.358207 28.827748 37.510724 -141.187651 71.725653 -110.493757 22.899888 28.874854 -50.185367 
0.347516 0.192723 1.001879 87.677100 -0.942002 92.443668 5.360762 3.250686 -6.239508 -2.935668 8.078044 6.682676 -1.395138 -2.544064 -3.813104 0.000000 -0.000000 0.000000 -8.445156 -5.081160 -11.487016 -3.166781 -8.857648 15.338482 7.887385 4.558071 -6.605358 0.000000 -0.000000 0.000000 -2.450279 4.821957 19.729381 -1.341141 -3.258430 22.811813 2.835659 1.537278 -6.057217 -3.345258 -0.344448 -3.197483 11.448720 1.511432 -6.081036 -2.680134 -38.195211 -1.618505 -88.810349 -25.175224 40.862058 -166.957406 -75.778790 -160.852501 24.240626 -14.767661 -45.812627 -13.807456 43.005386 -6.679840 83.374059 29.057586 38.309913 -138.953177 70.969892 -108.001158 23.564107 29.424524 -50.179908 
0.347168 0.192761 1.002076 87.218021 -1.070603 92.287513 5.224883 3.408799 -6.033047 -2.959453 8.101766 6.662408 -1.465291 -2.223400 -3.594992 0.000000 -0.000000 0.000000 -8.611491 -5.031419 -11.811699 -3.258772 -8.576789 15.946541 8.014470 4.769176 -6.577397 0.000000 -0.000000 0.000000 -2.168421 4.798825 19.967699 -1.701661 -2.948650 22.476166 2.520617 1.679339 -6.167746 -3.610500 -0.689313 -2.448432 11.928028 1.593154 -6.294237 -2.566959 -38.262099 -1.649868 -87.939553 -25.635214 40.202348 -165.439719 -74.997818 -161.208008 24.336942 -13.298277 -46.799787 -14.069244 43.448805 -6.649437 84.938403 28.987809 38.756951 -138.631140 70.933669 -108.034253 20.560787 28.650943 -53.349147 
0.347686 0.192758 1.003871 86.233536 -1.336474 92.004494 5.070610 3.528666 -5.036382 -3.169821 8.834402 5.805274 -1.838449 -2.238707 -3.196595 0.000000 -0.000000 0.000000 -8.857180 -4.745328 -11.832126 -3.505925 -8.468962 16.121928 8.262424 5.476853 -6.248562 0.000000 -0.000000 0.000000 -2.152572 5.153992 19.673830 -2.044384 -2.402854 23.297442 2.104557 1.958466 -6.787902 -3.616162 -0.702136 -1.678386 12.606012 0.964852 -6.582290 -2.676241 -38.610374 -1.416925 -87.709561 -25.240875 40.256459 -167.548902 -74.592546 -160.023262 22.919441 -13.374317 -47.132823 -13.660896 43.949690 -6.244284 86.392024 28.099556 39.087488 -136.066582 70.335808 -106.024210 20.933551 28.692868 -54.099261 
0.349503 0.192314 1.005811 85.416311 -1.698981 91.754435 4.837837 3.678139 -3.812060 -3.640554 8.954687 4.562279 -1.959441 -1.808724 -2.728262 0.000000 -0.000000 0.000000 -9.117868 -4.915861 -11.484693 -3.499064 -7.822458 15.738900 8.309407 5.572129 -6.197593 0.000000 -0.000000 0.000000 -2.368053 5.821321 18.832805 -2.096918 -2.074022 24.344173 1.917891 2.107056 -6.860486 -3.750708 -0.809516 -1.370474 13.002871 0.636983 -6.993323 -3.146317 -38.701632 -1.019554 -87.320511 -25.305269 40.440407 -166.855466 -74.562817 -161.189164 23.575932 -12.437732 -48.199897 -12.895358 43.947742 -5.484940 86.542318 27.003850 39.055637 -136.253347 70.150304 -106.606227 19.704757 27.716203 -56.077650 
0.348966 0.193403 1.005824 84.922218 -1.996412 91.938336 4.445797 3.377002 -3.632012 -3.811164 8.965864 3.974457 -1.687332 -1.182982 -2.595092 0.000000 -0.000000 0.000000 -9.395223 -4.535710 -11.768218 -3.503343 -7.532857 15.582980 8.175333 5.216210 -6.265297 0.000000 -0.000000 0.000000 -2.461221 5.750975 18.709876 -2.244698 -1.929290 23.537661 1.819807 2.013326 -6.289068 -3.957594 -0.468276 -1.721466 12.700082 0.562605 -6.534490 -2.937722 -38.348540 -0.965006 -87.966378 -25.064018 41.045524 -166.195081 -74.521484 -161.999062 23.764442 -11.283750 -49.898845 -12.247962 43.453971 -4.929943 86.121654 26.632642 38.998677 -137.929932 70.547446 -108.593244 18.845868 26.575239 -56.925747 
0.348751 0.193792 1.004827 85.289573 -1.972007 91.925557 4.399298 3.094289 -3.958966 -3.702407 8.582073 4.449451 -1.478581 -1.056365 -2.920783 0.000000 -0.000000 0.000000 -9.232875 -4.310606 -11.677675 -3.664679 -7.543582 15.573827 7.745867 4.659866 -6.635254 0.000000 -0.000000 0.000000 -2.620005 5.343781 18.822806 -2.034265 -2.548676 22.807970 2.079052 1.549936 -5.872211 -4.099802 0.227955 -2.065230 12.025694 1.151733 -5.919514 -3.377321 -38.305181 -0.500840 -88.077281 -25.228750 41.115588 -165.784354 -74.765875 -162.206756 23.421626 -11.084206 -50.471139 -11.710548 42.967142 -4.773682 85.990019 26.501246 39.147196 -138.460833 70.959364 -109.229957 18.132079 26.032345 -57.375345 
0.348290 0.194245 1.003136 86.553032 -1.482421 91.889692 4.616884 2.838527 -5.106697 -3.048695 7.933660 6.084640 -1.193574 -1.110088 -3.660355 0.000000 -0.000000 0.000000 -8.636610 -4.267501 -11.285274 -3.670506 -7.864615 15.367270 7.157155 3.734102 -6.974353 0.000000 -0.000000 0.000000 -2.721626 4.594814 19.307670 -1.286173 -3.761519 21.761305 2.807429 0.791636 -5.365495 -4.250909 1.005699 -2.667700 10.936443 2.250536 -5.089047 -3.591689 -38.276276 -0.094009 -88.353502 -25.740753 41.097956 -164.858823 -75.204418 -162.868128 23.018745 -11.434544 -50.868124 -11.390942 42.235229 -4.979743 85.918443 26.533903 39.617181 -138.218721 71.271700 -109.218664 18.007512 26.093650 -57.599286 
0.347928 0.194772 1.002296 87.950317 -0.691162 91.527206 5.103081 2.580974 -6.209564 -2.133114 7.557442 8.342468 -1.057381 -1.665736 -4.466772 0.000000 -0.000000 0.000000 -7.802782 -4.218536 -10.244738 -3.639725 -8.551248 14.864052 6.906119 3.051460 -7.128493 0.000000 -0.000000 0.000000 -2.810830 3.796430 19.894855 -0.337661 -5.136560 22.234128 3.628981 0.085501 -5.908228 -4.332524 1.902823 -2.758941 10.125391 3.502092 -4.661976 -4.216277 -38.468071 0.603687 -88.092860 -26.126883 40.875089 -165.311050 -75.641898 -163.850643 21.495526 -14.117303 -49.661489 -11.392954 41.810738 -5.494062 85.768565 26.552320 40.544647 -135.345766 70.935897 -106.455616 20.793970 28.342897 -56.092269 
0.347363 0.194902 1.002327 88.773198 0.196358 91.103059 5.767654 2.490558 -7.005912 -1.491720 6.888161 10.318215 -0.927408 -1.632783 -5.091294 0.000000 -0.000000 0.000000 -6.797973 -4.252338 -9.217659 -3.457687 -8.633342 14.102072 6.457976 2.377811 -7.126704 0.000000 -0.000000 0.000000 -2.865366 3.333018 20.703244 0.417778 -6.083912 22.375244 4.360209 -0.290736 -6.045613 -4.375763 2.407984 -2.939802 9.929280 4.645583 -4.305591 -4.607156 -38.870714 1.102149 -87.702537 -26.386498 40.381962 -164.660471 -75.521502 -164.363503 21.203086 -14.310537 -50.102245 -11.270004 41.762537 -5.544744 85.446287 26.218354 40.345318 -135.303188 70.858850 -106.380503 21.559512 28.591333 -56.118589 
